<?xml version="1.0" encoding="UTF-8"?>
<!DOCTYPE svg PUBLIC "-//W3C//DTD SVG 1.1//EN" "http://www.w3.org/Graphics/SVG/1.1/DTD/svg11.dtd">
<svg version="1.2" width="99.05mm" height="79.57mm" viewBox="0 0 9905 7957" preserveAspectRatio="xMidYMid" fill-rule="evenodd" stroke-width="28.222" stroke-linejoin="round" xmlns="http://www.w3.org/2000/svg" xmlns:ooo="http://xml.openoffice.org/svg/export" xmlns:xlink="http://www.w3.org/1999/xlink" xmlns:presentation="http://sun.com/xmlns/staroffice/presentation" xmlns:smil="http://www.w3.org/2001/SMIL20/" xmlns:anim="urn:oasis:names:tc:opendocument:xmlns:animation:1.0" xml:space="preserve">
 <defs class="ClipPathGroup">
  <clipPath id="presentation_clip_path" clipPathUnits="userSpaceOnUse">
   <rect x="0" y="0" width="9905" height="7957"/>
  </clipPath>
  <clipPath id="presentation_clip_path_shrink" clipPathUnits="userSpaceOnUse">
   <rect x="9" y="7" width="9886" height="7942"/>
  </clipPath>
 </defs>
 <defs class="TextShapeIndex">
  <g ooo:slide="id1" ooo:id-list="id3 id4"/>
 </defs>
 <defs class="EmbeddedBulletChars">
  <g id="bullet-char-template-57356" transform="scale(0.00048828125,-0.00048828125)">
   <path d="M 580,1141 L 1163,571 580,0 -4,571 580,1141 Z"/>
  </g>
  <g id="bullet-char-template-57354" transform="scale(0.00048828125,-0.00048828125)">
   <path d="M 8,1128 L 1137,1128 1137,0 8,0 8,1128 Z"/>
  </g>
  <g id="bullet-char-template-10146" transform="scale(0.00048828125,-0.00048828125)">
   <path d="M 174,0 L 602,739 174,1481 1456,739 174,0 Z M 1358,739 L 309,1346 659,739 1358,739 Z"/>
  </g>
  <g id="bullet-char-template-10132" transform="scale(0.00048828125,-0.00048828125)">
   <path d="M 2015,739 L 1276,0 717,0 1260,543 174,543 174,936 1260,936 717,1481 1274,1481 2015,739 Z"/>
  </g>
  <g id="bullet-char-template-10007" transform="scale(0.00048828125,-0.00048828125)">
   <path d="M 0,-2 C -7,14 -16,27 -25,37 L 356,567 C 262,823 215,952 215,954 215,979 228,992 255,992 264,992 276,990 289,987 310,991 331,999 354,1012 L 381,999 492,748 772,1049 836,1024 860,1049 C 881,1039 901,1025 922,1006 886,937 835,863 770,784 769,783 710,716 594,584 L 774,223 C 774,196 753,168 711,139 L 727,119 C 717,90 699,76 672,76 641,76 570,178 457,381 L 164,-76 C 142,-110 111,-127 72,-127 30,-127 9,-110 8,-76 1,-67 -2,-52 -2,-32 -2,-23 -1,-13 0,-2 Z"/>
  </g>
  <g id="bullet-char-template-10004" transform="scale(0.00048828125,-0.00048828125)">
   <path d="M 285,-33 C 182,-33 111,30 74,156 52,228 41,333 41,471 41,549 55,616 82,672 116,743 169,778 240,778 293,778 328,747 346,684 L 369,508 C 377,444 397,411 428,410 L 1163,1116 C 1174,1127 1196,1133 1229,1133 1271,1133 1292,1118 1292,1087 L 1292,965 C 1292,929 1282,901 1262,881 L 442,47 C 390,-6 338,-33 285,-33 Z"/>
  </g>
  <g id="bullet-char-template-9679" transform="scale(0.00048828125,-0.00048828125)">
   <path d="M 813,0 C 632,0 489,54 383,161 276,268 223,411 223,592 223,773 276,916 383,1023 489,1130 632,1184 813,1184 992,1184 1136,1130 1245,1023 1353,916 1407,772 1407,592 1407,412 1353,268 1245,161 1136,54 992,0 813,0 Z"/>
  </g>
  <g id="bullet-char-template-8226" transform="scale(0.00048828125,-0.00048828125)">
   <path d="M 346,457 C 273,457 209,483 155,535 101,586 74,649 74,723 74,796 101,859 155,911 209,963 273,989 346,989 419,989 480,963 531,910 582,859 608,796 608,723 608,648 583,586 532,535 482,483 420,457 346,457 Z"/>
  </g>
  <g id="bullet-char-template-8211" transform="scale(0.00048828125,-0.00048828125)">
   <path d="M -4,459 L 1135,459 1135,606 -4,606 -4,459 Z"/>
  </g>
  <g id="bullet-char-template-61548" transform="scale(0.00048828125,-0.00048828125)">
   <path d="M 173,740 C 173,903 231,1043 346,1159 462,1274 601,1332 765,1332 928,1332 1067,1274 1183,1159 1299,1043 1357,903 1357,740 1357,577 1299,437 1183,322 1067,206 928,148 765,148 601,148 462,206 346,322 231,437 173,577 173,740 Z"/>
  </g>
 </defs>
 <g>
  <g id="id2" class="Master_Slide">
   <g id="bg-id2" class="Background"/>
   <g id="bo-id2" class="BackgroundObjects"/>
  </g>
 </g>
 <g class="SlideGroup">
  <g>
   <g id="container-id1">
    <g id="id1" class="Slide" clip-path="url(#presentation_clip_path)">
     <g class="Page">
      <g class="com.sun.star.drawing.CustomShape">
       <g id="id3">
        <rect class="BoundingBox" stroke="none" fill="none" x="-1174" y="-2148" width="12253" height="12253"/>
        <path fill="rgb(255,255,240)" stroke="none" d="M 4952,10103 L -1173,10103 -1173,-2147 11077,-2147 11077,10103 4952,10103 Z"/>
        <path fill="none" stroke="rgb(0,153,153)" d="M 4952,10103 L -1173,10103 -1173,-2147 11077,-2147 11077,10103 4952,10103 Z"/>
       </g>
      </g>
      <g class="Graphic">
       <g id="id4">
        <rect class="BoundingBox" stroke="none" fill="none" x="0" y="0" width="9905" height="7957"/>
        <defs>
         <clipPath id="clip_path_1" clipPathUnits="userSpaceOnUse">
          <path d="M 0,0 L 9904,0 9904,7956 0,7956 0,0 Z"/>
         </clipPath>
        </defs>
        <g clip-path="url(#clip_path_1)">
         <path fill="rgb(255,255,255)" stroke="none" d="M 9271,3900 C 9271,5654 7849,7076 6095,7076 4341,7076 2919,5654 2919,3900 2919,2146 4341,723 6095,723 7850,723 9271,2146 9271,3900 L 9271,3900 Z"/>
         <path fill="none" stroke="rgb(0,0,0)" stroke-width="106" stroke-linejoin="round" stroke-linecap="round" d="M 9271,3900 C 9271,5654 7849,7076 6095,7076 4341,7076 2919,5654 2919,3900 2919,2146 4341,723 6095,723 7850,723 9271,2146 9271,3900 Z"/>
         <path fill="rgb(0,0,0)" fill-opacity="0.31" stroke="rgb(255,255,255)" stroke-opacity="0.31" d="M 6099,2336 C 4636,2366 4004,3324 4004,4501 4004,5026 4291,5508 4670,5883 3862,5540 3225,4874 2923,4047 3000,5731 4391,7076 6095,7076 7848,7076 9271,5653 9271,3900 9271,3517 9203,3150 9079,2811 9081,2859 9083,2908 9083,2958 9083,3819 8739,4600 8183,5172 8278,4960 8335,4735 8335,4500 8335,3305 7683,2336 6170,2336 6146,2336 6123,2336 6099,2336 L 6099,2336 Z"/>
         <path fill="rgb(51,51,51)" stroke="none" d="M 7178,7338 C 7656,7338 8044,7356 8044,7089 8044,6621 7656,6240 7178,6240 6700,6240 6312,6621 6312,7089 6312,7330 6700,7338 7178,7338 Z"/>
         <path fill="none" stroke="rgb(0,0,0)" stroke-width="106" stroke-linejoin="round" stroke-linecap="round" d="M 6312,7089 C 6312,7330 6700,7338 7178,7338 7656,7338 8044,7356 8044,7089 8044,6621 7656,6240 7178,6240 6700,6240 6312,6621 6312,7089 L 6312,7089 Z"/>
         <path fill="rgb(51,51,51)" stroke="none" d="M 5915,7089 C 5915,7330 5527,7338 5049,7338 4571,7338 4183,7356 4183,7089 4183,6621 4571,6240 5049,6240 5527,6240 5915,6621 5915,7089 L 5915,7089 Z"/>
         <path fill="none" stroke="rgb(0,0,0)" stroke-width="106" stroke-linejoin="round" stroke-linecap="round" d="M 5915,7089 C 5915,7330 5527,7338 5049,7338 4571,7338 4183,7356 4183,7089 4183,6621 4571,6240 5049,6240 5527,6240 5915,6621 5915,7089 Z"/>
         <path fill="rgb(0,0,0)" fill-opacity="0.31" stroke="rgb(255,255,255)" stroke-opacity="0.31" d="M 4716,7322 C 4716,6889 4966,6622 4966,6622 4966,6622 4866,6989 4882,7322 L 4716,7322 4716,7322 Z"/>
         <path fill="none" stroke="rgb(0,0,0)" stroke-width="106" stroke-linejoin="round" d="M 4716,7322 C 4716,6889 4966,6622 4966,6622 4966,6622 4866,6989 4882,7322 L 4716,7322 4716,7322 Z"/>
         <path fill="rgb(68,170,0)" stroke="none" d="M 6142,5830 C 4915,5741 4066,6132 4066,6132 4066,6132 4336,6126 4489,6150 4203,6346 4109,6736 4109,6736 4109,6736 4428,6393 4756,6271 4478,6641 4441,7249 4441,7249 4441,7249 4761,6304 5358,6108 5814,5959 6296,6047 6296,6047 6296,6047 7251,5981 7579,6551 7622,6572 7617,6205 7346,6074 L 8077,6036 C 7544,5812 6142,5830 6142,5830 L 6142,5830 Z"/>
         <path fill="none" stroke="rgb(0,0,0)" stroke-width="106" stroke-linejoin="round" d="M 6142,5830 C 4915,5741 4066,6132 4066,6132 4066,6132 4336,6126 4489,6150 4203,6346 4109,6736 4109,6736 4109,6736 4428,6393 4756,6271 4478,6641 4441,7249 4441,7249 4441,7249 4761,6304 5358,6108 5814,5959 6296,6047 6296,6047 6296,6047 7251,5981 7579,6551 7622,6572 7617,6205 7346,6074 L 8077,6036 C 7544,5812 6142,5830 6142,5830 L 6142,5830 Z"/>
         <path fill="rgb(51,51,51)" stroke="none" d="M 6025,1987 C 5228,2003 4677,2295 4342,2748 3705,2679 3176,3373 3176,3373 3176,3373 3676,3623 4024,3413 3961,3644 3930,3892 3930,4152 3930,5347 5415,6317 6095,6317 6802,6317 8261,5347 8261,4152 8261,3892 8230,3644 8166,3413 8515,3623 9014,3373 9014,3373 9014,3373 8485,2679 7849,2748 7503,2282 6931,1987 6095,1987 6072,1987 6048,1987 6025,1987 L 6025,1987 Z"/>
         <path fill="none" stroke="rgb(0,0,0)" stroke-width="106" stroke-linejoin="round" stroke-linecap="round" d="M 6025,1987 C 5228,2003 4677,2295 4342,2748 3705,2679 3176,3373 3176,3373 3176,3373 3676,3623 4024,3413 3961,3644 3930,3892 3930,4152 3930,5347 5415,6317 6095,6317 6802,6317 8261,5347 8261,4152 8261,3892 8230,3644 8166,3413 8515,3623 9014,3373 9014,3373 9014,3373 8485,2679 7849,2748 7503,2282 6931,1987 6095,1987 6072,1987 6048,1987 6025,1987 L 6025,1987 Z"/>
         <path fill="rgb(0,0,0)" fill-opacity="0.31" stroke="rgb(255,255,255)" stroke-opacity="0.31" d="M 7511,7322 C 7511,6889 7261,6622 7261,6622 7261,6622 7361,6989 7344,7322 L 7511,7322 7511,7322 Z"/>
         <path fill="none" stroke="rgb(0,0,0)" stroke-width="106" stroke-linejoin="round" d="M 7511,7322 C 7511,6889 7261,6622 7261,6622 7261,6622 7361,6989 7344,7322 L 7511,7322 Z"/>
         <path fill="rgb(255,255,255)" stroke="none" d="M 5400,4434 C 5068,4434 4800,4166 4800,3834 4800,3503 5068,3235 5400,3235 5731,3235 5999,3503 5999,3834 5999,4166 5731,4434 5400,4434 Z"/>
         <path fill="none" stroke="rgb(0,0,0)" stroke-width="106" stroke-linejoin="round" stroke-linecap="round" d="M 5999,3834 C 5999,4166 5731,4434 5400,4434 5068,4434 4800,4166 4800,3834 4800,3503 5068,3235 5400,3235 5731,3235 5999,3503 5999,3834 L 5999,3834 Z"/>
         <path fill="rgb(255,255,255)" stroke="none" d="M 6795,4434 C 6464,4434 6195,4166 6195,3834 6195,3503 6464,3235 6795,3235 7126,3235 7394,3503 7394,3834 7394,4166 7126,4434 6795,4434 Z"/>
         <path fill="none" stroke="rgb(0,0,0)" stroke-width="106" stroke-linejoin="round" stroke-linecap="round" d="M 7394,3834 C 7394,4166 7126,4434 6795,4434 6464,4434 6195,4166 6195,3834 6195,3503 6464,3235 6795,3235 7126,3235 7394,3503 7394,3834 L 7394,3834 Z"/>
         <path fill="rgb(0,0,0)" stroke="none" d="M 6861,3940 C 6861,4051 6772,4140 6661,4140 6551,4140 6461,4051 6462,3940 6461,3830 6551,3740 6661,3740 6772,3740 6861,3830 6861,3940 L 6861,3940 Z"/>
         <path fill="rgb(0,0,0)" stroke="none" d="M 5749,3940 C 5749,4051 5660,4140 5549,4140 5439,4140 5350,4051 5350,3940 5350,3830 5439,3740 5549,3740 5660,3740 5749,3830 5749,3940 L 5749,3940 Z"/>
         <path fill="rgb(0,0,0)" fill-opacity="0.31" stroke="rgb(255,255,255)" stroke-opacity="0.31" d="M 8173,3442 L 8124,3513 C 8130,3594 8133,3677 8133,3761 8133,4956 6674,5926 5968,5926 5420,5926 4351,5297 3955,4429 4157,5493 5468,6317 6095,6317 6802,6317 8260,5347 8260,4152 8260,3903 8232,3665 8173,3442 L 8173,3442 Z"/>
         <path fill="rgb(0,0,0)" stroke="none" d="M 6534,5544 C 6474,5649 6362,5699 6286,5654 6209,5610 6196,5489 6257,5384 6317,5279 6429,5230 6505,5274 6582,5318 6595,5439 6534,5544 L 6534,5544 Z"/>
         <path fill="rgb(0,0,0)" stroke="none" d="M 5668,5544 C 5729,5649 5840,5699 5917,5654 5994,5610 6006,5489 5946,5384 5885,5279 5774,5230 5697,5274 5621,5318 5608,5439 5668,5544 L 5668,5544 Z"/>
         <path fill="rgb(255,255,0)" stroke="none" d="M 4107,6289 C 4020,6280 3941,6343 3932,6430 3931,6444 3932,6458 3934,6471 3860,6478 3799,6537 3791,6613 3782,6701 3846,6779 3933,6788 3953,6790 3972,6788 3990,6783 3986,6867 4048,6941 4132,6950 4219,6959 4298,6895 4307,6808 4309,6786 4307,6765 4301,6745 4369,6733 4424,6677 4432,6605 4441,6517 4377,6439 4290,6430 4276,6429 4262,6429 4249,6431 4242,6357 4184,6297 4107,6289 L 4107,6289 Z M 4121,6635 C 4116,6636 4112,6637 4107,6638 4108,6627 4108,6615 4106,6605 4109,6604 4112,6604 4115,6604 4116,6615 4118,6625 4121,6635 Z"/>
         <path fill="none" stroke="rgb(0,0,0)" stroke-width="106" stroke-linejoin="round" stroke-linecap="round" d="M 4107,6289 C 4020,6280 3941,6343 3932,6430 3931,6444 3932,6458 3934,6471 3860,6478 3799,6537 3791,6613 3782,6701 3846,6779 3933,6788 3953,6790 3972,6788 3990,6783 3986,6867 4048,6941 4132,6950 4219,6959 4298,6895 4307,6808 4309,6786 4307,6765 4301,6745 4369,6733 4424,6677 4432,6605 4441,6517 4377,6439 4290,6430 4276,6429 4262,6429 4249,6431 4242,6357 4184,6297 4107,6289 L 4107,6289 Z"/>
         <path fill="none" stroke="rgb(0,0,0)" stroke-width="106" stroke-linejoin="round" stroke-linecap="round" d="M 4115,6604 C 4116,6615 4118,6625 4121,6635 4116,6636 4112,6637 4107,6638 4108,6627 4108,6615 4106,6605 4109,6604 4112,6604 4115,6604 L 4115,6604 Z"/>
         <path fill="none" stroke="rgb(0,0,0)" stroke-width="168" stroke-linejoin="miter" d="M 2966,3479 C 2324,2523 2822,22 5946,86 9390,25 9169,1653 9026,3348"/>
         <path fill="rgb(204,204,204)" fill-opacity="0.988" stroke="rgb(255,255,255)" stroke-opacity="0.988" d="M 3901,4483 C 3363,4429 2969,3976 3020,3473 3071,2970 3546,2606 4082,2658 L 3993,3571 3901,4483 Z"/>
         <path fill="none" stroke="rgb(0,0,0)" stroke-width="139" stroke-linejoin="round" stroke-linecap="round" d="M 3901,4483 C 3363,4429 2969,3976 3020,3473 3071,2970 3546,2606 4082,2658 L 3993,3571 3901,4483 Z"/>
         <path fill="none" stroke="rgb(0,0,0)" stroke-width="42" stroke-linejoin="miter" d="M 2840,3353 C 2539,3592 2201,3844 2142,4166 2072,3794 2920,3719 3000,4090 3065,4410 2363,4511 2160,4263 1990,4381 2146,4583 2380,4526 2678,4641 2234,5109 2146,4770 2292,4395 1412,4606 1536,4812 2028,4767 1739,5176 1374,5117 1020,5081 1609,4720 1124,4825 623,4883 1387,5149 907,5254 573,5378 422,5062 735,4972 862,4763 302,5017 330,5147 140,5396 973,5532 456,5724 18,5851 404,5231 98,5438 -22,5735 -53,6144 391,6331 802,6363 143,5909 609,6026 842,6177 1325,5912 1474,6212 1722,6585 776,6526 786,6438 1157,6678 1714,6586 2154,6670 1926,6757 1490,6551 1214,6687 858,6899 1562,7148 1864,7063 2016,7013 2424,6938 2187,7101 1827,7029 1362,7285 1804,7464 2176,7580 2705,7675 2840,7324 3117,7140 3386,7622 2917,7566 2494,7538 2485,7898 2895,7907 3267,7929 3639,7869 4006,7832 4855,7706 5647,7434 6515,7361 6973,7245 7463,7316 7934,7303 L 9883,7432"/>
         <path fill="none" stroke="rgb(0,0,0)" stroke-width="42" stroke-linejoin="miter" d="M 3198,7536 L 3196,7535 3198,7536 3198,7536 Z"/>
         <path fill="none" stroke="rgb(0,0,0)" stroke-width="42" stroke-linejoin="miter" d="M 3151,7550 L 3148,7550 3151,7550 3151,7550 Z"/>
         <path fill="none" stroke="rgb(0,0,0)" stroke-width="42" stroke-linejoin="miter" d="M 2594,7696 L 2597,7698 2594,7696 2594,7696 Z"/>
         <path fill="none" stroke="rgb(0,0,0)" stroke-width="42" stroke-linejoin="miter" d="M 2573,7816 L 2574,7813 2573,7816 2573,7816 Z"/>
         <path fill="none" stroke="rgb(0,0,0)" stroke-width="42" stroke-linejoin="miter" d="M 2646,7840 L 2643,7839 2646,7840 2646,7840 Z"/>
         <path fill="none" stroke="rgb(0,0,0)" stroke-width="42" stroke-linejoin="miter" d="M 2720,7890 L 2730,7886 2720,7890 2720,7890 Z"/>
         <path fill="none" stroke="rgb(0,0,0)" stroke-width="42" stroke-linejoin="miter" d="M 3101,7901 L 3103,7903 3101,7901 3101,7901 Z"/>
         <path fill="none" stroke="rgb(0,0,0)" stroke-width="42" stroke-linejoin="miter" d="M 2839,7911 L 2846,7907 2839,7911 2839,7911 Z"/>
         <path fill="none" stroke="rgb(0,0,0)" stroke-width="42" stroke-linejoin="miter" d="M 3095,7917 L 3092,7921 3095,7917 3095,7917 Z"/>
         <path fill="none" stroke="rgb(0,0,0)" stroke-width="42" stroke-linejoin="miter" d="M 3123,7935 L 3127,7934 3123,7935 3123,7935 Z"/>
         <path fill="rgb(204,204,204)" fill-opacity="0.988" stroke="rgb(255,255,255)" stroke-opacity="0.988" d="M 7956,2550 C 8492,2489 8974,2847 9031,3350 9089,3852 8702,4309 8167,4372 L 8060,3461 7956,2550 Z"/>
         <path fill="none" stroke="rgb(0,0,0)" stroke-width="139" stroke-linejoin="round" stroke-linecap="round" d="M 7956,2550 C 8492,2489 8974,2847 9031,3350 9089,3852 8702,4309 8167,4372 L 8060,3461 7956,2550 Z"/>
        </g>
       </g>
      </g>
     </g>
    </g>
   </g>
  </g>
 </g>
</svg>