<?xml version="1.0" encoding="UTF-8"?>
<!DOCTYPE svg PUBLIC "-//W3C//DTD SVG 1.1//EN" "http://www.w3.org/Graphics/SVG/1.1/DTD/svg11.dtd">
<svg version="1.1" xmlns="http://www.w3.org/2000/svg" xmlns:xlink="http://www.w3.org/1999/xlink" x="0" y="0" width="381" height="532" viewBox="0, 0, 381, 532">
  <g id="Layer_1">
    <path d="M308.973,390.033 L333.305,396.102 C334.193,395.089 335.07,394.068 335.939,393.035 L335.997,392.702 L309.609,387.058 L308.973,390.033 z M27.744,251.028 L28.601,246.043 L27.561,250.905 C27.62,250.948 27.687,250.985 27.744,251.028 M51.17,251.305 L52.027,246.321 L50.989,251.182 C51.046,251.224 51.114,251.262 51.17,251.305 M51.794,227.482 L36.733,224.259 L36.412,225.762 L51.445,229.512 L51.794,227.482 z M167.3,190.981 C155.968,204.873 147.19,227.567 145.954,246.168 C144.804,263.459 144.974,281.573 160.415,296.321 C174.303,309.589 201.702,304.906 211.549,294.937 C214.476,291.975 216.877,287.458 218.697,282.162 C215.667,267.414 211.313,251.893 206.245,236.057 C204.79,235.819 203.283,235.773 201.712,235.973 C197.924,236.453 195.349,237.896 193.84,240.386 C190.382,246.098 193.734,255.305 193.77,255.398 C193.999,256.012 193.872,256.703 193.442,257.198 L186.077,265.686 C186.036,265.734 185.984,265.767 185.938,265.809 C185.878,265.865 185.818,265.926 185.751,265.976 C185.69,266.017 185.624,266.046 185.559,266.081 C185.489,266.119 185.422,266.159 185.348,266.187 C185.277,266.214 185.203,266.226 185.13,266.242 C185.065,266.257 185.003,266.283 184.933,266.291 L166.121,268.533 C165.557,268.596 164.984,268.391 164.592,267.971 C153.273,255.751 151.798,236.04 160.833,217.751 C166.308,206.669 176.368,195.473 190.406,190.501 C188.019,183.996 185.612,177.512 183.223,171.078 C183.3,171.602 183.161,172.147 182.787,172.556 C182.745,172.601 178.469,177.287 167.3,190.981 M361.813,298.814 C358.348,296.387 355.414,294.253 353.64,291.806 C351.846,289.411 351,286.764 350.136,283.421 C349.238,280.126 348.631,276.194 346.352,272.073 C345.21,270.054 343.288,268.026 340.977,267.13 C339.067,266.407 337.182,266.373 335.476,266.799 C333.85,266.563 332.282,266.775 330.877,267.311 L330.7,267.269 L319.239,326.76 C317.378,325.747 315.244,324.921 312.918,324.376 C309.836,323.653 306.84,323.523 304.184,323.876 C297.585,323.697 292.198,326.257 291.194,330.533 C289.935,335.9 296.048,341.927 304.848,343.993 C307.95,344.72 310.966,344.852 313.63,344.492 C319.561,344.639 324.498,342.57 326.144,339.029 L326.227,339.049 L326.348,338.529 C326.432,338.299 326.518,338.073 326.573,337.833 C326.629,337.595 326.653,337.353 326.681,337.113 L338.504,286.729 C339.585,290.515 341.869,294.701 345.642,297.113 C349.136,299.361 353.03,299.95 356.616,299.357 C358.393,299.459 360.152,299.273 361.813,298.814 M292.243,204.209 L292.3,204.22 L292.378,203.864 C292.435,203.708 292.493,203.552 292.529,203.386 C292.565,203.223 292.581,203.056 292.598,202.891 L301.787,161.878 L322.622,166.547 L317.247,196.043 C316.224,195.587 315.113,195.203 313.923,194.936 C311.646,194.427 309.434,194.379 307.521,194.715 C302.693,194.434 298.683,196.251 297.992,199.331 C297.167,203.013 301.391,207.092 307.427,208.444 C309.688,208.951 311.877,208.996 313.78,208.668 C318.178,208.934 321.901,207.458 323.07,204.872 L323.129,204.884 L323.207,204.527 C323.262,204.371 323.321,204.213 323.356,204.049 C323.395,203.886 323.408,203.719 323.427,203.554 L333.881,156.894 L328.095,155.598 L297.268,154.935 L297.221,155.187 L293.757,155.113 L286.419,195.38 C285.396,194.924 284.285,194.542 283.094,194.274 C280.817,193.764 278.605,193.717 276.692,194.052 C271.865,193.771 267.854,195.588 267.164,198.668 C266.34,202.35 270.563,206.429 276.599,207.782 C278.86,208.288 281.051,208.332 282.951,208.004 C287.349,208.271 291.072,206.794 292.243,204.209 M61.12,220.048 L56.717,219.105 L33.29,218.829 L33.251,219.048 L29.778,219.005 L24.556,249.331 C23.999,249.131 23.423,248.951 22.811,248.821 C20.974,248.429 19.202,248.434 17.693,248.754 C13.761,248.386 10.424,249.822 9.895,252.294 C9.295,255.097 12.535,258.166 17.13,259.147 C18.971,259.542 20.747,259.54 22.254,259.218 C25.835,259.549 28.917,258.381 29.834,256.301 L29.877,256.311 L29.936,256.039 C29.977,255.919 30.018,255.8 30.045,255.674 C30.072,255.55 30.082,255.424 30.094,255.298 L35.447,230.275 L50.659,234.068 L47.982,249.607 C47.425,249.408 46.85,249.229 46.238,249.097 C44.4,248.706 42.628,248.71 41.121,249.032 C37.188,248.663 33.851,250.1 33.322,252.571 C32.722,255.373 35.962,258.443 40.556,259.425 C42.397,259.819 44.174,259.817 45.682,259.494 C49.263,259.826 52.344,258.659 53.261,256.579 L53.304,256.587 L53.362,256.315 C53.404,256.197 53.446,256.078 53.473,255.952 C53.499,255.826 53.509,255.702 53.52,255.575 L61.12,220.048 z M380.617,270.538 C380.617,311.352 367.764,349.161 345.891,380.15 L341.789,379.273 L303.924,378.825 L303.887,379.044 L300.416,379.003 L291.811,428.956 C290.356,428.253 288.744,427.675 286.99,427.299 C284.425,426.751 281.94,426.688 279.739,427.009 C273.891,426.781 269.08,429.051 268.278,432.803 C267.607,435.938 269.91,439.278 273.853,441.564 C263.705,446.53 253.054,450.625 241.99,453.74 C243.449,417.739 234.057,378.777 229.736,373.739 L218.955,376.206 C219.342,377.019 219.725,378.086 220.087,379.362 L216.146,380.327 C219.645,387.712 223.675,416.194 215.906,448.139 C214.781,451.924 213.49,455.755 212.012,459.607 C210.902,459.734 209.793,459.854 208.68,459.96 C190.945,418.407 127.081,414.207 112.103,444.084 C88.192,433.293 66.913,417.708 49.488,398.549 C49.496,398.416 49.513,398.277 49.519,398.141 L58.728,340.221 C60.163,344.509 63.117,349.327 67.735,351.828 C71.292,353.767 75.09,354.27 78.623,353.731 C80.995,353.848 83.325,353.477 85.473,352.711 C81.425,350.293 77.989,348.16 75.817,345.584 C73.63,343.064 72.475,340.191 71.243,336.546 C69.978,332.955 68.986,328.632 66.115,324.234 C64.683,322.082 62.38,319.985 59.738,319.175 C57.906,318.63 56.133,318.626 54.507,319 C52.484,318.748 50.568,319.111 48.902,319.89 L48.703,319.858 L40.73,387.391 C40.418,387.246 40.099,387.108 39.775,386.969 C14.846,354.785 0,314.398 0,270.538 C0,212.452 26.031,160.454 67.055,125.547 L72.552,144.281 C71.335,144.243 70.068,144.3 68.771,144.451 C66.532,144.403 64.134,144.662 61.688,145.273 C52.367,147.607 45.966,154.106 47.389,159.792 C48.631,164.752 55.426,167.453 63.333,166.507 C65.553,166.545 67.93,166.287 70.352,165.682 C78.947,163.53 85.044,157.835 84.827,152.503 L84.915,152.481 L84.777,151.932 C84.745,151.676 84.715,151.418 84.65,151.165 C84.586,150.912 84.494,150.67 84.401,150.429 L76.317,118.134 C86.317,110.644 97.081,104.119 108.466,98.686 L115.807,123.698 C114.59,123.658 113.324,123.716 112.026,123.867 C109.787,123.818 107.388,124.079 104.943,124.689 C95.623,127.024 89.221,133.523 90.643,139.206 C91.885,144.168 98.68,146.869 106.586,145.921 C108.808,145.962 111.185,145.703 113.604,145.097 C122.2,142.945 128.297,137.251 128.082,131.92 L128.169,131.899 L128.032,131.348 C127.998,131.091 127.969,130.835 127.905,130.58 C127.842,130.327 127.747,130.087 127.654,129.845 L118.725,94.166 C130.03,89.573 141.875,86.037 154.141,83.678 C160.157,108.979 171.314,139.035 182.94,170.32 L170.018,149.637 C169.546,148.881 168.59,148.586 167.775,148.944 C146.234,158.384 119.336,187.995 109.721,201.749 C105.67,207.546 99.218,218.085 94.54,231.992 C94.12,232.89 83.659,254.938 84.725,281.995 C85.987,314.079 101.382,340.058 130.479,359.213 C150.285,372.25 172.164,379.017 193.755,379.015 C200.76,379.015 207.736,378.303 214.598,376.863 C236.435,372.275 255.47,360.269 265.514,344.752 C268.656,339.899 274.266,330.543 276.531,322.401 C282.666,300.363 281.754,271.434 278.217,252.301 C277.769,249.546 277.35,247.971 277.243,247.59 C271.446,222.139 250.814,191.827 210.899,188.062 C208.627,187.848 206.419,187.79 204.274,187.869 C189.244,143.638 176.237,98.303 178.99,80.575 C182.737,80.354 186.509,80.23 190.31,80.23 C200.558,80.23 210.614,81.051 220.425,82.61 C216.094,105.265 195.065,133.456 195.065,133.456 L197.143,141.089 C197.143,141.089 198.484,139.24 200.656,136.121 L201.521,139.294 C201.521,139.294 224.051,108.292 234.151,85.315 C318.119,105.114 380.617,180.524 380.617,270.538 M307.546,396.71 L328.075,401.83 C319.96,410.344 311.058,418.097 301.495,424.994 L307.546,396.71" fill="#36A0CD"/>
    <path d="M335.939,393.035 L335.324,396.605 L335.148,397.616 L305.462,390.21 L306.288,386.346 L309.609,387.058 L335.997,392.702 L335.939,393.035 z M303.888,379.044 L300.416,379.003 L291.811,428.956 L291.449,431.047 C289.394,429.443 286.639,428.154 283.479,427.479 C282.205,427.207 280.952,427.059 279.739,427.009 C273.891,426.781 269.08,429.051 268.278,432.803 C267.607,435.938 269.91,439.278 273.853,441.564 C275.607,442.582 277.683,443.392 279.971,443.881 C282.538,444.43 285.027,444.504 287.229,444.178 C290.902,443.637 293.768,441.981 294.831,439.568 L294.901,439.584 L294.995,439.144 C295.061,438.952 295.129,438.759 295.172,438.557 C295.216,438.356 295.233,438.152 295.251,437.948 L304.249,395.887 L307.544,396.71 L328.075,401.83 L334.163,403.35 L329.675,429.405 L329.314,431.494 C327.258,429.891 324.503,428.602 321.343,427.927 C320.067,427.653 318.813,427.505 317.602,427.459 C311.754,427.229 306.944,429.5 306.142,433.251 C305.172,437.781 310.407,442.742 317.835,444.331 C320.4,444.878 322.893,444.954 325.093,444.627 C328.766,444.084 331.631,442.429 332.695,440.016 L332.766,440.033 L332.858,439.593 C332.924,439.4 332.993,439.208 333.036,439.003 C333.079,438.802 333.096,438.598 333.114,438.397 L345.397,380.975 L338.278,379.453 L303.888,379.044 z M33.414,223.55 L36.733,224.259 L51.794,227.482 L51.445,229.512 L51.27,230.523 L32.902,225.94 L33.414,223.55 z M17.13,259.149 C18.971,259.542 20.747,259.54 22.254,259.218 C24.22,258.796 25.729,257.83 26.324,256.48 L26.367,256.489 L26.425,256.218 C26.467,256.098 26.508,255.978 26.535,255.854 C26.562,255.728 26.572,255.602 26.583,255.476 L32.151,229.452 L35.447,230.275 L50.659,234.068 L47.982,249.607 L47.66,251.483 C46.387,250.492 44.682,249.693 42.727,249.276 C42.185,249.161 41.647,249.079 41.121,249.032 C37.188,248.664 33.851,250.1 33.322,252.571 C32.723,255.373 35.961,258.443 40.556,259.425 C42.397,259.819 44.174,259.817 45.682,259.493 C47.647,259.073 49.155,258.108 49.751,256.757 L49.794,256.767 L49.852,256.495 C49.893,256.375 49.935,256.255 49.962,256.13 C49.989,256.005 49.999,255.878 50.011,255.754 L57.61,220.225 L53.206,219.283 L33.251,219.048 L29.779,219.005 L24.232,251.207 C22.96,250.214 21.255,249.417 19.3,248.999 C18.758,248.882 18.22,248.804 17.694,248.754 C13.761,248.386 10.424,249.822 9.895,252.293 C9.295,255.096 12.535,258.165 17.13,259.149 M47.389,159.792 C45.966,154.105 52.367,147.607 61.688,145.274 C64.134,144.662 66.533,144.403 68.771,144.451 C70.163,144.481 71.491,144.628 72.729,144.886 L53.919,80.782 L97.174,60.199 L106.107,57.962 L106.273,58.621 L124.146,130.023 C124.237,130.264 124.33,130.506 124.396,130.758 C124.459,131.013 124.489,131.269 124.521,131.526 L124.659,132.076 L124.57,132.099 C124.789,137.43 118.691,143.124 110.095,145.276 C108.91,145.571 107.737,145.786 106.586,145.921 C98.68,146.869 91.886,144.168 90.643,139.206 C89.221,133.523 95.623,127.024 104.943,124.69 C107.388,124.079 109.787,123.819 112.026,123.867 C113.417,123.895 114.747,124.043 115.983,124.302 L102.154,77.172 L101.963,76.52 L64.683,85.852 L80.89,150.607 C80.982,150.849 81.077,151.089 81.141,151.343 C81.204,151.597 81.233,151.853 81.268,152.111 L81.403,152.661 L81.317,152.682 C81.534,158.013 75.437,163.709 66.841,165.86 C65.657,166.156 64.484,166.369 63.333,166.507 C55.426,167.453 48.631,164.753 47.389,159.792 M267.164,198.667 C267.854,195.588 271.865,193.771 276.692,194.051 C277.632,194.106 278.6,194.232 279.584,194.453 C282.151,195.026 284.386,196.098 286.047,197.42 L293.757,155.113 L297.221,155.188 L324.585,155.777 L330.37,157.073 L319.916,203.733 C319.898,203.898 319.884,204.064 319.847,204.228 C319.811,204.392 319.753,204.549 319.697,204.705 L319.618,205.063 L319.562,205.049 C318.72,206.906 316.56,208.187 313.779,208.668 C311.877,208.996 309.688,208.951 307.427,208.444 C301.391,207.092 297.168,203.013 297.992,199.331 C298.683,196.25 302.693,194.435 307.521,194.715 C308.461,194.769 309.428,194.895 310.413,195.115 C312.979,195.69 315.214,196.761 316.874,198.083 L317.247,196.043 L322.622,166.547 L301.787,161.88 L298.482,161.138 L289.086,203.069 C289.07,203.234 289.056,203.4 289.019,203.565 C288.982,203.729 288.925,203.885 288.869,204.043 L288.79,204.399 L288.733,204.387 C287.893,206.243 285.731,207.524 282.951,208.004 C281.051,208.332 278.86,208.288 276.599,207.781 C270.563,206.429 266.34,202.35 267.164,198.667 M81.962,352.89 C80.889,353.273 79.77,353.554 78.623,353.731 C75.09,354.27 71.291,353.767 67.735,351.828 C63.117,349.327 60.163,344.509 58.729,340.221 C58.679,340.076 58.619,339.928 58.574,339.786 C57.605,336.859 57.1,334.075 56.624,331.55 L46.008,398.32 C45.998,398.589 45.99,398.86 45.947,399.129 C45.903,399.401 45.827,399.66 45.754,399.919 L45.66,400.509 L45.566,400.496 C44.169,404.181 39.668,406.744 33.924,407.432 C31.515,407.72 28.892,407.686 26.182,407.253 C16.229,405.674 8.944,399.469 9.909,393.399 C10.735,388.207 17.336,384.806 25.456,384.919 C26.829,384.94 28.238,385.046 29.676,385.277 C33.908,385.95 37.65,387.461 40.488,389.441 L48.703,319.858 L48.902,319.89 C50.568,319.111 52.484,318.748 54.507,319 C55.072,319.071 55.648,319.181 56.228,319.353 C58.869,320.163 61.173,322.259 62.605,324.412 C65.474,328.809 66.466,333.131 67.733,336.723 C68.965,340.371 70.12,343.244 72.306,345.762 C74.478,348.338 77.915,350.475 81.962,352.89 M358.301,298.992 C357.75,299.146 357.187,299.262 356.617,299.357 C353.03,299.95 349.136,299.361 345.642,297.114 C341.869,294.702 339.585,290.515 338.504,286.729 C338.409,286.398 338.308,286.065 338.232,285.742 C337.556,283.06 337.286,280.537 337.025,278.248 L323.17,337.292 C323.144,337.532 323.119,337.774 323.062,338.012 C323.007,338.25 322.92,338.479 322.838,338.706 L322.716,339.229 L322.632,339.209 C321.325,342.022 317.938,343.907 313.63,344.492 C310.966,344.852 307.95,344.718 304.848,343.991 C296.048,341.927 289.935,335.9 291.194,330.533 C292.198,326.258 297.585,323.699 304.184,323.876 C305.864,323.92 307.621,324.136 309.409,324.555 C313.15,325.433 316.399,327.032 318.811,328.988 L319.239,326.76 L330.7,267.27 L330.877,267.311 C332.282,266.775 333.851,266.563 335.476,266.799 C336.133,266.894 336.797,267.056 337.465,267.309 C339.777,268.205 341.701,270.231 342.842,272.251 C345.122,276.372 345.727,280.305 346.626,283.6 C347.49,286.942 348.336,289.588 350.128,291.984 C351.904,294.432 354.838,296.565 358.301,298.992 M196.903,482.376 C196.177,477.998 194.589,474.148 192.302,470.918 C190.031,467.677 187.162,464.995 183.98,462.732 C177.595,458.214 170.079,455.264 162.37,453.424 C154.642,451.612 146.582,450.996 138.793,452.124 C131.034,453.259 123.453,456.352 117.668,463.124 C118.695,458.803 121.321,454.766 124.794,451.632 C128.275,448.479 132.552,446.229 137.001,444.77 C145.965,441.902 155.573,441.924 164.558,444.018 C173.53,446.138 182.211,450.307 188.938,456.979 C192.26,460.317 195.04,464.342 196.565,468.831 C198.101,473.296 198.3,478.165 196.903,482.376 M220.087,379.362 L216.146,380.327 C219.645,387.712 223.675,416.194 215.906,448.139 C214.161,455.316 211.826,462.666 208.749,469.993 C193.107,423.245 121.772,418.915 109.3,453.042 C105.83,462.539 106.912,475.013 115.028,490.383 C141.927,541.331 211.363,539.826 231.206,501.816 C233.995,496.473 236.054,490.32 237.518,483.666 C246.473,442.989 233.146,383.68 227.825,377.472 L220.087,379.362 z M270.066,329.305 L272.338,312.744 C274.08,308.847 275.571,304.67 276.755,300.202 C276.09,307.605 274.913,314.842 273.076,321.438 C272.371,323.973 271.29,326.675 270.066,329.305 M262.502,342.803 C260.806,345.422 258.826,347.931 256.617,350.321 L256.617,335.654 C261.23,331.039 265.447,325.623 268.993,319.367 L266.744,335.757 C265.078,338.739 263.5,341.263 262.502,342.803 M234.38,351.155 C237.675,349.632 240.984,347.827 244.234,345.704 C244.59,345.472 244.942,345.23 245.295,344.993 C248.345,342.928 251.336,340.594 254.201,337.969 L254.201,352.791 C248.689,358.128 241.941,362.739 234.38,366.382 L234.38,351.155 z M213.86,373.351 C210.854,373.983 207.823,374.461 204.779,374.803 L204.068,358.42 C205.265,358.271 206.445,358.108 207.605,357.926 C214.4,357.256 218.594,356.334 218.744,356.3 C222.951,355.473 227.426,354.118 231.965,352.217 L231.965,367.51 C226.289,370.03 220.204,372.019 213.86,373.351 M177.949,374.185 L177.982,358.837 C186.249,359.662 194.248,359.49 201.664,358.702 L202.371,375.045 C194.281,375.754 186.095,375.462 177.949,374.185 M150.478,352.116 C158.876,355.527 167.338,357.557 175.566,358.568 L175.535,373.775 C166.914,372.218 158.357,369.567 150.023,365.852 L150.478,352.116 z M125.195,351.064 L125.438,351.071 L125.89,337.446 C133.071,343.336 140.546,347.797 148.094,351.11 L147.643,364.759 C142.474,362.32 137.397,359.472 132.452,356.216 C129.924,354.551 127.509,352.834 125.195,351.064 M105.925,331.983 L106.322,331.997 L106.821,316.876 C109.374,320.549 112.318,324.196 115.649,327.782 C116.366,328.567 117.091,329.333 117.823,330.083 C118.238,330.503 118.659,330.916 119.08,331.329 C119.263,331.507 119.438,331.689 119.623,331.87 C119.731,331.974 119.839,332.072 119.948,332.173 C120.304,332.513 120.662,332.851 121.022,333.181 C121.856,333.959 122.695,334.72 123.539,335.457 L123.077,349.401 C116.409,344.052 110.689,338.241 105.925,331.983 M94.983,312.007 L95.05,294.556 C96.687,298.854 98.651,303.09 100.948,307.244 C102.036,309.292 103.225,311.344 104.521,313.394 L103.994,329.346 C100.147,323.888 96.998,318.107 94.555,312.006 L94.983,312.007 z M89.131,264.084 C89.24,271.941 90.425,279.772 92.661,287.451 L92.59,306.575 C90.083,298.811 88.651,290.565 88.309,281.854 C88.06,275.538 88.429,269.554 89.131,264.084 M97.96,233.077 L111.042,235.07 L110.436,238.893 L142.55,243.991 C142.489,244.639 142.417,245.293 142.375,245.93 C142.247,247.849 142.138,249.777 142.059,251.711 L108.534,250.601 L108.414,254.222 L93.229,253.719 C93.46,251.669 93.76,249.623 94.147,247.58 C95.128,242.416 96.447,237.565 97.96,233.077 M109.778,208.174 L119.03,212.718 L117.549,216.331 L145.518,227.777 C144.922,230.004 144.392,232.229 143.95,234.434 L111.948,229.353 L111.42,232.685 L98.779,230.759 C102.186,221.326 106.348,213.634 109.778,208.174 M112.663,203.804 C115.138,200.26 118.79,195.643 123.193,190.598 L130.984,196.386 L129.628,198.409 L150.727,212.528 C149.902,214.501 149.127,216.502 148.407,218.523 L121.209,207.391 L119.946,210.479 L111.092,206.129 C111.644,205.293 112.176,204.501 112.663,203.804 M134.496,178.512 L141.007,184.065 L139.306,185.998 L156.313,200.963 C155.462,202.49 154.649,204.068 153.855,205.668 L133.769,192.224 L132.329,194.376 L124.794,188.781 C127.765,185.447 131.034,181.968 134.496,178.512 M145.424,168.33 L152.215,175.576 L150.44,177.356 L163.347,190.229 C162.292,191.596 161.253,193.012 160.25,194.513 L144.222,180.411 L142.602,182.251 L136.22,176.809 C139.189,173.906 142.278,171.046 145.424,168.33 M157.879,158.665 L163.19,166.696 L160.935,168.36 L170.551,181.38 C169.772,182.318 168.938,183.327 168.05,184.407 L155.695,172.085 L153.921,173.866 L147.266,166.763 C150.781,163.813 154.347,161.063 157.879,158.665 M167.809,152.873 L179.23,171.153 C178.462,172.023 177.185,173.493 175.292,175.725 L166.704,164.099 L165.135,165.258 L159.894,157.331 C162.577,155.605 165.229,154.098 167.809,152.873 M183.223,171.078 C185.612,177.512 188.019,183.996 190.406,190.5 C176.366,195.473 166.308,206.668 160.833,217.751 C151.798,236.04 153.273,255.751 164.592,267.971 C164.984,268.391 165.557,268.598 166.12,268.533 L184.933,266.291 C185.003,266.282 185.065,266.257 185.13,266.242 C185.203,266.226 185.277,266.213 185.348,266.187 C185.42,266.16 185.489,266.118 185.559,266.081 C185.624,266.046 185.69,266.017 185.751,265.976 C185.818,265.929 185.878,265.866 185.938,265.809 C185.984,265.767 186.036,265.732 186.077,265.686 L193.443,257.197 C193.872,256.703 193.999,256.012 193.769,255.398 C193.736,255.305 190.382,246.099 193.84,240.386 C195.349,237.896 197.923,236.453 201.712,235.973 C203.283,235.773 204.79,235.819 206.245,236.057 C211.313,251.893 215.667,267.414 218.697,282.162 C216.877,287.458 214.476,291.975 211.549,294.939 C201.702,304.906 174.303,309.589 160.415,296.321 C144.974,281.573 144.804,263.458 145.954,246.168 C147.19,227.567 155.968,204.873 167.3,190.98 C178.471,177.287 182.745,172.601 182.787,172.556 C183.162,172.148 183.3,171.602 183.223,171.078 M210.562,191.632 C214.083,191.965 217.442,192.521 220.651,193.264 L216.452,206.055 L214.491,205.326 L207.687,223.639 C207.417,223.605 207.143,223.579 206.865,223.555 C205.45,223.301 204.104,223.196 202.877,223.188 L202.27,203.674 L199.383,203.764 L198.918,192.013 C202.57,191.41 206.453,191.245 210.562,191.632 M235.641,218.278 L234.324,216.465 L218.419,228 C217.255,227.052 215.985,226.251 214.616,225.596 L221.218,207.825 L218.976,206.992 L223.265,193.93 C233.48,196.702 242.061,201.463 249.117,207.399 L235.641,218.278 z M268.12,232.269 L246.742,236.931 L246.195,234.056 L225.234,238.048 C225.141,237.789 225.049,237.529 224.948,237.275 C224.41,235.907 223.781,234.649 223.085,233.481 L238.537,222.272 L237.221,220.46 L251.176,209.195 C258.588,215.952 264.183,224.006 268.12,232.269 M274.729,253.352 L248.777,254.515 L248.584,250.785 L227.574,251.877 C227.533,250.44 227.439,248.968 227.284,247.491 L248.002,243.544 L247.247,239.576 L269.263,234.774 C271.457,239.823 273.051,244.906 274.059,249.777 C274.309,250.979 274.526,252.169 274.729,253.352 M222.703,258.18 C222.678,259.46 222.628,260.751 222.545,262.049 C220.208,255.545 217.68,248.419 215.043,240.86 C219.448,245.397 222.014,252.234 222.703,258.18 M225.567,267.504 C226.072,267.058 226.688,264.806 227.111,261.574 L249.086,260.432 L248.917,257.203 L275.155,256.028 C276.075,262.344 276.387,268.337 276.34,273.728 L250.407,273.061 L250.414,269.208 L225.329,269.159 C225.406,268.616 225.472,268.07 225.538,267.522 C225.547,267.515 225.559,267.512 225.567,267.504 M167.234,244.129 L167.123,246.817 L179.265,247.321 C179.285,248.862 179.416,250.47 179.647,252.141 L167.737,253.187 L167.955,255.664 L161.498,256.626 C159.841,252.784 158.858,248.571 158.606,244.129 L167.234,244.129 z M161.953,224.189 L171.091,227.936 L170.039,230.413 L181.67,235.354 C181.512,235.765 181.357,236.18 181.226,236.616 C180.73,237.74 180.336,238.927 180.027,240.173 L167.42,239.65 L167.309,242.335 L158.568,242.335 C158.484,236.483 159.605,230.315 161.953,224.189 M173.233,206.11 L178.872,213.138 L177.117,214.63 L188.173,227.625 C187.367,228.164 186.614,228.748 185.914,229.363 L172.844,223.81 L171.792,226.286 L162.599,222.516 C163.047,221.454 163.527,220.395 164.048,219.338 C166.301,214.782 169.38,210.206 173.233,206.11 M197.137,192.346 L197.59,203.819 L195.099,203.897 L195.729,224.18 C195.368,224.28 195.013,224.393 194.657,224.509 L194.821,224.368 L182.582,209.981 L180.238,211.975 L174.493,204.816 C180.415,198.943 188.016,194.249 197.137,192.346 M182.183,263.006 L166.62,264.86 C164.891,262.877 163.45,260.679 162.272,258.324 L168.113,257.454 L168.364,260.335 L181.136,259.211 C181.271,259.707 181.414,260.208 181.567,260.713 C181.768,261.553 181.974,262.34 182.183,263.006 M190.064,255.618 L185.402,260.99 C181.8,249.862 181.98,241.27 185.95,235.424 C191.17,227.735 201.607,227.083 203.649,227.03 C203.893,227.026 204.133,227.021 204.372,227.021 C210.916,227.021 215.894,229.369 219.173,234.001 C221.956,237.936 223.25,243.04 223.751,247.987 C222.289,244.421 220.232,241.022 217.537,238.272 C213.02,233.663 207.396,231.639 201.26,232.414 C196.383,233.032 192.854,235.088 190.771,238.528 C187.162,244.487 189.181,252.736 190.064,255.618 M255.336,331.827 L238.262,314.844 L240.823,311.715 L217.691,292.786 C218.431,291.589 219.123,290.295 219.77,288.925 L246.304,301.439 L247.849,298.164 L270.091,308.86 C266.37,318.014 261.227,325.632 255.336,331.827 M233.674,347.53 L220.823,327.742 L224.161,325.656 L209.021,301.421 C209.787,300.951 210.506,300.456 211.193,299.947 L234.705,319.189 L236.725,316.724 L253.645,333.553 C247.448,339.65 240.541,344.263 233.674,347.53 M203.855,354.667 L200.326,335.774 L204.128,334.856 L197.244,306.338 C198.236,306.076 199.206,305.781 200.158,305.466 L215.969,330.773 L218.774,329.022 L231.449,348.538 C226.832,350.543 222.271,351.953 217.996,352.791 C217.812,352.834 212.377,354.032 203.855,354.667 M152.063,330.807 L155.24,332.053 L148.893,346.737 C141.4,343.608 134.002,339.387 127.112,333.735 L138.332,319.752 L141.019,322.059 L159.627,300.401 C160.713,301.287 161.86,302.086 163.049,302.809 L152.063,330.807 z M177.488,336.847 L175.753,353.878 C167.858,352.804 159.463,350.874 151.133,347.641 L157.487,332.935 L161.056,334.335 L171.946,306.584 C173.276,306.948 174.631,307.24 176,307.468 L173.53,336.512 L177.488,336.847 z M187.697,307.954 L194.738,337.122 L197.975,336.342 L201.429,354.828 C194.901,355.199 186.877,355.194 178.148,354.179 L179.895,337.053 L183.154,337.33 L185.644,308.07 C186.328,308.044 187.015,308.006 187.697,307.954 M107.544,311.285 L121.354,300.867 L123.607,304.372 L149.161,287.944 C150.25,289.792 151.495,291.609 152.908,293.398 L133.691,315.765 L136.501,318.178 L125.267,332.178 C122.175,329.489 119.194,326.502 116.368,323.176 C113.094,319.326 110.156,315.352 107.544,311.285 M114.91,278.68 L115.75,282.203 L144.018,275.455 C144.335,276.666 144.697,277.871 145.104,279.068 L118.383,296.249 L120.043,298.83 L106.259,309.23 C101.199,300.924 97.522,292.243 95.287,283.384 L114.91,278.68 z M92.994,256.127 L108.335,256.636 L108.215,260.255 L142.027,261.375 C142.091,262.893 142.197,264.411 142.349,265.923 L113.507,272.807 L114.628,277.505 L114.348,276.331 L94.727,281.035 C92.895,272.814 92.303,264.46 92.994,256.127 M270.967,306.601 L248.88,295.979 L250.424,292.703 L223.108,279.82 C223.202,279.485 223.301,279.154 223.392,278.815 L250.396,278.868 L250.402,275.476 L276.293,276.142 C275.94,288.501 273.824,297.243 273.448,298.703 C272.741,301.454 271.903,304.078 270.967,306.601 M163.748,39.071 C162.479,41.398 161.459,43.874 160.618,46.427 C159.78,48.981 159.119,51.625 158.705,54.331 C157.736,59.744 157.796,65.355 158.131,71.046 C156.246,65.671 155.191,59.913 155.212,54.051 C155.197,51.119 155.496,48.168 156.073,45.254 C156.637,42.336 157.483,39.447 158.661,36.676 C160.985,31.129 164.481,25.981 168.985,21.816 C173.482,17.655 178.957,14.442 185.018,12.771 C188.051,11.953 191.23,11.552 194.438,11.66 C197.629,11.866 200.58,12.343 203.598,13.204 C209.599,14.855 215.081,18.463 219.139,23.021 C223.269,27.575 225.931,33.029 227.779,38.526 C229.575,44.067 230.668,49.715 231.093,55.406 C229.112,50.059 227.125,44.779 224.533,39.897 C221.977,35.026 218.968,30.448 215.101,26.961 C211.269,23.463 206.791,20.894 201.802,19.768 L199.929,19.374 L198.993,19.169 L198.03,19.066 C196.76,18.954 195.434,18.713 194.241,18.744 C191.8,18.694 189.313,19.019 186.894,19.694 C182.037,21.004 177.445,23.557 173.497,26.889 C169.533,30.229 166.255,34.412 163.748,39.071 M278.217,252.301 C277.769,249.546 277.351,247.971 277.243,247.59 C271.446,222.139 250.815,191.827 210.899,188.061 C208.627,187.848 206.419,187.79 204.274,187.869 C201.974,187.954 199.748,188.197 197.597,188.585 C182.457,140.722 169.887,92.43 175.597,78.611 C180.522,66.692 188.693,59.79 196.77,57.313 C208.911,53.591 220.838,59.886 221.204,74.311 C221.27,76.939 220.976,79.734 220.425,82.61 C216.094,105.265 195.065,133.456 195.065,133.456 L197.143,141.089 C197.143,141.089 198.484,139.24 200.656,136.121 C209.351,123.632 231.376,90.692 234.261,73.546 C241.633,29.724 215.984,0.715 189.852,1.957 C176.486,2.592 162.993,11.133 153.729,29.67 C147.487,42.158 148.752,61.011 154.141,83.678 C160.157,108.98 171.314,139.035 182.94,170.32 L170.018,149.636 C169.546,148.88 168.591,148.586 167.775,148.944 C146.234,158.384 119.336,187.995 109.721,201.749 C105.67,207.546 99.218,218.085 94.541,231.992 L94.54,231.992 C94.12,232.89 83.659,254.938 84.725,281.995 C85.987,314.08 101.383,340.058 130.479,359.213 C150.285,372.25 172.164,379.017 193.755,379.015 C200.76,379.015 207.735,378.303 214.598,376.863 C236.435,372.275 255.47,360.269 265.514,344.752 C268.656,339.899 274.266,330.543 276.531,322.401 C282.667,300.363 281.754,271.434 278.217,252.301" fill="#0B0B09"/>
  </g>
</svg>
