<?xml version="1.0"?>
<svg xmlns:rdf="http://www.w3.org/1999/02/22-rdf-syntax-ns#" xmlns="http://www.w3.org/2000/svg" xmlns:cc="http://creativecommons.org/ns#" xmlns:dc="http://purl.org/dc/elements/1.1/" id="svg2" viewBox="0 0 752.52 644.18" version="1.0">
 <rect id="rect16156" height="644.18" width="752.52" y="0" x="0" fill="none"/>
 <g id="g14694" stroke="#fff" stroke-linecap="round" fill="#fff" transform="matrix(1.0629 0 0 1.0629 883.35 17.094)">
  <path id="path14696" stroke-linejoin="round" stroke-width="18.242" d="m-637.83 58.938l53.5 90.872-106.59-56.32 51.08 78.34-120.78 2.86 58.2 40.38-96.5 37.37 82.76 15.56-8.38 6.09c71.45-50.14 5.08-47.05 5.08-1.99 0 70.37-6.73 180.26 61.21 180.26 22.38 0 43.3-6.3 61.38-17.12 27.04 16.79 82.47 31.19 116.71 34.01 11.07 54.96 67.53 84.79 157.94 84.79 98.03 0 157.57-44.58 157.57-106.21 0-55.16-36.48-93.62-120.13-102.65 6.63-18.23 8.46-35.89 8.46-56.18 0-11.62 6.05 9.79 3.8-1.23 19.8-23.72 13.41-35.18 13.41-67.37 0-77.65-68.54-140.67-152.98-140.67-45.95 0-87.11 18.722-115.15 48.26l-110.59-69.052z"/>
  <path id="path14698" stroke-width="35.658" d="m-698.35 324.96c-59.51-84.56-33.45-194.1 45.4-261 57.26-48.583 157.81-50.086 260.99 45.4"/>
  <path id="path14700" stroke-width="20.606" d="m-253.12 298.07c22.37-26.79 35.71-63.94 35.71-100.3 0-87.71-78.48-162.17-172.81-147.98-84.66 12.741-98.4 21.15-130.07 54.51 0 0 269.72 206.22 267.17 193.77z"/>
  <path id="path14702" stroke-width="21.874" d="m-681.71 246.48c24.62-11.04-55.37 25.39-55.37 112.18 0 84.38 51.57 145.59 133.04 145.59 26.83 0 66.47-11.19 88.16-24.17l-165.83-233.6z"/>
 </g>
 <path id="path4261" d="m272.3 107.19l45.7 77.63-98.82-49.67 51.41 68.47-145.15 2.45 91.69 34.49-138.85 39.66 106.9 14.88 13.05-4.13c-29.13 19.36-48.51 53.09-48.51 91.58 0 60.11 47.1 108.9 105.14 108.9 19.12 0 36.98-5.38 52.43-14.62 23.09 14.34 50.24 23.53 79.49 25.94 9.45 46.95 73.22 83.31 150.46 83.31 83.74 0 151.69-42.74 151.69-95.39 0-47.11-54.47-86.19-125.93-93.9 5.67-15.58 8.78-32.22 8.78-49.54 0-9.93-1.04-19.63-2.97-29.04 16.92-20.26 27-45.6 27-73.1 0-66.33-58.54-120.16-130.68-120.16-39.25 0-74.41 15.99-98.36 41.22l-94.47-58.98z" stroke="#000" stroke-linecap="round" stroke-width="15.582" fill="#f00"/>
 <path id="path1318" d="m538.73 396.07c83.74 0 151.71 42.73 151.71 95.37 0 52.65-67.97 95.38-151.71 95.38s-151.7-42.73-151.7-95.38" stroke="#000" stroke-linecap="round" stroke-width="15.582" fill="#f00"/>
 <path id="path1321" d="m468.14 262c-32.13 0-58.22 26.08-58.22 58.21 0 2.37 0.19 4.71 0.46 7.01-9.41-6.53-20.8-10.39-33.11-10.39-32.13 0-58.22 26.08-58.22 58.22 0 32.13 26.09 58.2 58.22 58.2s58.2-26.07 58.2-58.2c0-2.38-0.18-4.71-0.46-7.02 9.41 6.54 20.82 10.4 33.13 10.4 32.14 0 58.21-26.09 58.21-58.22s-26.07-58.21-58.21-58.21z" stroke="#000" stroke-linecap="round" stroke-width="15.582" fill="#fff"/>
 <path id="path2053" d="m163.08 325.11c-50.83-72.24-33.46-172.12 38.78-222.95 72.24-50.836 172.12-33.464 222.95 38.77" stroke="#000" stroke-linecap="round" stroke-width="30.46" fill="none"/>
 <path id="path2785" stroke-width="6.2363" stroke="#000" stroke-linecap="round" d="m443.52 313.44c-12.86 0-23.3 10.43-23.3 23.29 0 0.95 0.07 1.89 0.18 2.81-3.76-2.62-8.32-4.16-13.25-4.16-12.86 0-23.3 10.44-23.3 23.3s10.44 23.29 23.3 23.29 23.3-10.43 23.3-23.29c0-0.95-0.08-1.89-0.19-2.81 3.77 2.62 8.33 4.16 13.26 4.16 12.86 0 23.3-10.44 23.3-23.3s-10.44-23.29-23.3-23.29z"/>
 <path id="path4265" d="m295.64 364.09c-6.49 0.02-0.71-19.02 12.91-42.5 13.62-23.47 29.94-42.53 36.43-42.55" stroke="#000" stroke-linecap="round" stroke-width="15.582" fill="none"/>
 <path id="path4993" d="m460.43 237.96c1.57-3.29-9.5-4.94-24.71-3.68s-28.83 4.96-30.4 8.26" stroke="#000" stroke-linecap="round" stroke-width="15.583" fill="none"/>
 <path id="path4995" d="m599.37 309.9c19.11-22.88 30.5-51.5 30.5-82.56 0-74.93-66.13-135.74-147.61-135.74-44.34 0.004-84.05 18.07-111.11 46.57 0 0 230.4 182.37 228.22 171.73z" stroke="#000" stroke-linecap="round" stroke-width="17.602" fill="#797684"/>
 <path id="path4997" d="m178.85 287.6c-34.93 23.22-58.18 63.67-58.18 109.82 0 72.08 56.49 130.58 126.09 130.58 22.92 0 44.34-6.45 62.87-17.53l-130.78-222.87z" stroke="#000" stroke-linecap="round" stroke-width="18.685" fill="#797684"/>
 <path id="path10929" d="m174.39 334.31c-24.88 16.53 79.95 166.63 93.14 158.73l-93.14-158.73z" stroke="#000" stroke-linecap="round" stroke-width="13.309" fill="#797684"/>
 <path id="path10931" d="m596.61 270.04c15.16-18.15-159.6-158.86-181.06-136.25 0 0 182.79 144.69 181.06 136.25z" stroke="#000" stroke-linecap="round" stroke-width="13.964" fill="#797684"/>
 <metadata>
  <rdf:RDF>
   <cc:Work>
    <dc:format>image/svg+xml</dc:format>
    <dc:type rdf:resource="http://purl.org/dc/dcmitype/StillImage"/>
    <cc:license rdf:resource="http://creativecommons.org/licenses/publicdomain/"/>
    <dc:publisher>
     <cc:Agent rdf:about="http://openclipart.org/">
      <dc:title>Openclipart</dc:title>
     </cc:Agent>
    </dc:publisher>
   </cc:Work>
   <cc:License rdf:about="http://creativecommons.org/licenses/publicdomain/">
    <cc:permits rdf:resource="http://creativecommons.org/ns#Reproduction"/>
    <cc:permits rdf:resource="http://creativecommons.org/ns#Distribution"/>
    <cc:permits rdf:resource="http://creativecommons.org/ns#DerivativeWorks"/>
   </cc:License>
  </rdf:RDF>
 </metadata>
</svg>
